<?xml version="1.0" encoding="UTF-8"?>
<!-- Created with Inkscape (http://www.inkscape.org/) -->
<svg width="48" height="48" version="1.1" viewBox="0 0 48 48" xmlns="http://www.w3.org/2000/svg" xmlns:cc="http://creativecommons.org/ns#" xmlns:dc="http://purl.org/dc/elements/1.1/" xmlns:rdf="http://www.w3.org/1999/02/22-rdf-syntax-ns#">
 <title>Jasmin Blume</title>
 <g>
  <circle cx="24" cy="24" r="24" fill="#ecdfd8" style="paint-order:normal"/>
  <g transform="matrix(.81778 0 0 .81766 4.2476 5.069)" stroke-width="1.2229">
   <circle cx="24.536" cy="23.94" r="8.9141" fill="#4138f5" style="paint-order:normal"/>
   <g fill="#4138f5" stroke="#4138f5" stroke-width="1.2229px">
    <path d="m26.116 26.116c-0.75063 3.283 0.52687 6.7239 1.7984 9.5165s2.3458 5.9226 4.9652 7.1696 6.3708 0.14731 6.7783-2.8611-1.2228-5.2662-3.4355-7.1635-6.344-5.3088-9.2717-5.7075"/>
    <path d="m23.755 25.278c-2.7263 1.9771-4.0298 5.4082-4.9111 8.3474-0.88128 2.9392-1.7748 6.4663-0.62394 9.1293 1.1508 2.6631 4.6986 4.3048 6.9859 2.3086 2.2873-1.9962 2.5463-4.769 2.1298-7.6539-0.41656-2.8849-1.2806-8.1725-3.2219-10.4"/>
    <path d="m21.218 23.357c0.27301 3.8129-1.7558 7.4515-3.6657 10.364-1.9098 2.9124-4.3215 6.2647-7.4751 7.2096-3.1536 0.94493-7.1702-0.93885-7.106-4.3843 0.064134-3.4455 2.2837-5.6956 5.094-7.4406 2.8103-1.745 8.0344-4.8559 11.387-4.7958"/>
    <path d="m23.246 22.415c-2.6645 2.5745-6.633 3.3315-9.9876 3.7251-3.3545 0.39361-7.3487 0.68832-10.015-1.0654-2.6666-1.7537-3.7677-5.9077-1.1664-8.0034 2.6013-2.0956 5.6565-1.8473 8.704-0.8462 3.0475 1.0011 8.3944 4.6054 10.438 7.1319"/>
    <path d="m23.238 21.903c-3.566-0.56442-6.4821-3.2103-8.7553-5.5913-2.2732-2.381-4.8445-5.318-5.0431-8.423-0.19863-3.105 2.3887-6.399 5.5449-5.6029 3.1562 0.79614 4.7544 3.3206 5.7621 6.2807 1.0077 2.9601 1.3377 9.2375 0.56938 12.31"/>
    <path d="m24.986 22.317c-2.2269-2.8418-2.5603-6.7652-2.6035-10.057-0.04313-3.2916 0.17561-4.957 1.924-8.4695 1.7484-3.5125 6.3812-4.7888 8.2338-1.6384 1.8526 3.1503 0.86234 6.9811-0.4156 9.835-1.2779 2.8538-4.2381 7.6157-6.8934 9.3427"/>
    <path d="m27.317 22.973c3.343 0.40689 6.6333-1.2198 9.2793-2.7735 2.6461-1.5537 5.6481-2.9461 6.6173-5.6805 0.96927-2.7344-0.51271-6.3518-3.5471-6.4459-3.0344-0.0941-5.1114 1.7611-6.7696 4.1583-1.6582 2.3972-4.6238 6.8593-4.7174 9.8125"/>
    <path d="m26.481 25.056c1.9903 2.9436 5.559 4.4345 8.624 5.4632 3.065 1.0287 6.2482 2.4527 9.0905 1.3275 2.8423-1.1251 4.6896-4.8142 2.6645-7.2952-2.0251-2.4809-4.9357-2.8474-7.987-2.5046-3.0513 0.3428-8.6471 1.0772-11.057 3.0512"/>
   </g>
   <circle cx="24.536" cy="23.94" r="4.7403" fill="#ecdfd8" stroke="#ecdfd8" stroke-linecap="round" stroke-linejoin="round" stroke-width="2.4458" style="paint-order:normal"/>
  </g>
 </g>
 <metadata>
  <rdf:RDF>
   <cc:Work rdf:about="">
    <dc:title>Jasmin Blume</dc:title>
   </cc:Work>
  </rdf:RDF>
 </metadata>
</svg>
